<svg width="20" height="20" viewBox="0 0 20 20" fill="none" xmlns="http://www.w3.org/2000/svg">
<path d="M10.5 7.99977C10.5 6.34977 9.14999 4.99977 7.49999 4.99977C5.84999 4.99977 4.49999 6.34977 4.49999 7.99977C4.49999 9.64977 5.84999 10.9998 7.49999 10.9998C9.14999 10.9998 10.5 9.64977 10.5 7.99977ZM7.49999 8.99977C6.94999 8.99977 6.49999 8.54977 6.49999 7.99977C6.49999 7.44977 6.94999 6.99977 7.49999 6.99977C8.04999 6.99977 8.49999 7.44977 8.49999 7.99977C8.49999 8.54977 8.04999 8.99977 7.49999 8.99977ZM14 10.9998C15.11 10.9998 16 10.1098 16 8.99977C16 7.88977 15.11 6.99977 14 6.99977C12.89 6.99977 11.99 7.88977 12 8.99977C12 10.1098 12.89 10.9998 14 10.9998ZM9.98999 0.00976562C4.46999 0.00976562 -0.0100098 4.48977 -0.0100098 10.0098C-0.0100098 15.5298 4.46999 20.0098 9.98999 20.0098C15.51 20.0098 19.99 15.5298 19.99 10.0098C19.99 4.48977 15.51 0.00976562 9.98999 0.00976562ZM3.83999 15.1198C4.51999 14.5798 6.10999 14.0098 7.49999 14.0098C7.56999 14.0098 7.64999 14.0198 7.72999 14.0198C7.96999 13.3798 8.39999 12.7298 9.02999 12.1598C8.52546 12.0631 8.01361 12.0096 7.49999 11.9998C6.19999 11.9998 4.10999 12.4498 2.76999 13.4298C2.26999 12.3898 1.98999 11.2298 1.98999 9.99977C1.98999 5.58977 5.57999 1.99977 9.98999 1.99977C14.4 1.99977 17.99 5.58977 17.99 9.99977C17.99 11.1998 17.72 12.3398 17.24 13.3698C16.24 12.7798 14.88 12.4998 14 12.4998C12.48 12.4998 9.49999 13.3098 9.49999 15.1998V17.9798C8.41062 17.9178 7.34573 17.6319 6.37186 17.1398C5.398 16.6477 4.53609 15.96 3.83999 15.1198Z" fill="#828181"/>
</svg>
