<svg width="25" height="24" viewBox="0 0 25 24" fill="none" xmlns="http://www.w3.org/2000/svg">
<path d="M9.66682 11V18M15.6668 11V18M14.6668 5C14.6668 4.46957 14.4561 3.96086 14.081 3.58579C13.706 3.21071 13.1973 3 12.6668 3C12.1364 3 11.6277 3.21071 11.2526 3.58579C10.8775 3.96086 10.6668 4.46957 10.6668 5M19.9268 9.696L21.3118 18.696C21.3556 18.9808 21.3374 19.2718 21.2583 19.5489C21.1792 19.8261 21.0411 20.0828 20.8535 20.3016C20.666 20.5204 20.4333 20.6961 20.1715 20.8167C19.9098 20.9372 19.625 20.9997 19.3368 21H5.99682C5.70845 21 5.42349 20.9377 5.16146 20.8173C4.89944 20.6969 4.66655 20.5212 4.47877 20.3024C4.29098 20.0836 4.15274 19.8267 4.07353 19.5494C3.99431 19.2721 3.97599 18.981 4.01982 18.696L5.40482 9.696C5.47747 9.22359 5.7169 8.79282 6.07975 8.4817C6.44259 8.17059 6.90486 7.9997 7.38282 8H17.9508C18.4286 7.99994 18.8906 8.17094 19.2533 8.48203C19.6159 8.79312 19.8542 9.22376 19.9268 9.696Z" stroke="#828181" stroke-width="1.5" stroke-linecap="round" stroke-linejoin="round"/>
</svg>
