<svg width="25" height="22" viewBox="0 0 25 22" fill="none" xmlns="http://www.w3.org/2000/svg">
<path d="M20.0478 4.85693H4.61925C2.7257 4.85693 1.19067 6.39196 1.19067 8.28551V17.7141C1.19067 19.6076 2.7257 21.1426 4.61925 21.1426H20.0478C21.9414 21.1426 23.4764 19.6076 23.4764 17.7141V8.28551C23.4764 6.39196 21.9414 4.85693 20.0478 4.85693Z" stroke="#828181" stroke-width="1.14286" stroke-linecap="round" stroke-linejoin="round"/>
<path d="M7.19067 21.1427V4.857M17.4764 21.1427V4.857M8.04782 4.857C8.04782 3.72036 8.49935 2.63027 9.30307 1.82655C10.1068 1.02282 11.1969 0.571289 12.3335 0.571289C13.4702 0.571289 14.5603 1.02282 15.364 1.82655C16.1677 2.63027 16.6192 3.72036 16.6192 4.857" stroke="#828181" stroke-width="1.14286" stroke-linecap="round" stroke-linejoin="round"/>
</svg>
