<svg width="14" height="14" viewBox="0 0 14 14" fill="none" xmlns="http://www.w3.org/2000/svg">
<path d="M11.6667 13H3.66667C2.95942 13 2.28115 12.719 1.78105 12.219C1.28095 11.7189 1 11.0406 1 10.3333V2.33333C1 1.97971 1.14048 1.64057 1.39052 1.39052C1.64057 1.14048 1.97971 1 2.33333 1H9C9.35362 1 9.69276 1.14048 9.94281 1.39052C10.1929 1.64057 10.3333 1.97971 10.3333 2.33333V11C10.3333 12.1047 10.562 13 11.6667 13Z" stroke="#A4A4A4" stroke-width="1.33333" stroke-linecap="round" stroke-linejoin="round"/>
<path d="M13.0026 5.66666C13.0026 5.31304 12.8621 4.9739 12.6121 4.72385C12.362 4.4738 12.0229 4.33333 11.6693 4.33333H10.3359V11.3333C10.3359 12.2533 10.7493 13 11.6693 13C12.5893 13 13.0026 12.2533 13.0026 11.3333V5.66666Z" stroke="#A4A4A4" stroke-width="1.33333" stroke-linecap="round" stroke-linejoin="round"/>
<path d="M7.66406 6.33334H3.66406M7.66406 3.66667H3.66406M5.66406 9.00001H3.66406" stroke="#A4A4A4" stroke-width="1.33333" stroke-linecap="round"/>
</svg>
