<svg width="14" height="15" viewBox="0 0 14 15" fill="none" xmlns="http://www.w3.org/2000/svg">
<path d="M13.6594 7.46406C13.6594 7.64167 13.6237 7.81748 13.5545 7.98106C13.4853 8.14464 13.384 8.29267 13.2566 8.41638C13.1291 8.54009 12.9782 8.63697 12.8126 8.70127C12.647 8.76557 12.4702 8.79599 12.2927 8.79073L9.13405 8.69806L6.83138 13.4601C6.64671 13.8427 6.25805 14.0867 5.83271 14.0867C5.74536 14.0868 5.65899 14.0683 5.5793 14.0325C5.49962 13.9967 5.42844 13.9444 5.37047 13.8791C5.3125 13.8137 5.26905 13.7368 5.24301 13.6535C5.21696 13.5701 5.20891 13.4821 5.21938 13.3954L5.79471 8.60006L3.28471 8.52673L2.95805 9.42073C2.89754 9.58622 2.78765 9.72913 2.64325 9.83013C2.49886 9.93112 2.32692 9.98532 2.15071 9.98539C2.07178 9.98539 1.99361 9.96984 1.9207 9.93961C1.84778 9.90938 1.78153 9.86508 1.72574 9.80923C1.66996 9.75338 1.62573 9.68708 1.59558 9.61413C1.56543 9.54118 1.54996 9.463 1.55005 9.38406V8.40006L1.01005 8.2874C0.820917 8.248 0.651127 8.14466 0.529243 7.99477C0.40736 7.84488 0.34082 7.65759 0.34082 7.4644C0.34082 7.2712 0.40736 7.08391 0.529243 6.93402C0.651127 6.78413 0.820917 6.68079 1.01005 6.6414L1.55005 6.5294V5.54406C1.54989 5.39775 1.60319 5.25642 1.69994 5.14666C1.79669 5.0369 1.93021 4.96627 2.07538 4.94806L2.15071 4.9434C2.32673 4.94356 2.49846 4.99772 2.64271 5.09858C2.78697 5.19944 2.8968 5.34213 2.95738 5.5074L3.28538 6.40073L5.78605 6.3274L5.21938 1.60473C5.21813 1.59254 5.21724 1.58031 5.21671 1.56806L5.21538 1.5314C5.21538 1.19073 5.49205 0.914062 5.83271 0.914062C6.22271 0.914062 6.58138 1.11873 6.78138 1.4474L6.83138 1.54073L9.10005 6.23073L12.2934 6.1374C12.6452 6.12717 12.9867 6.25712 13.2428 6.49866C13.4988 6.7402 13.6484 7.07355 13.6587 7.4254L13.6594 7.46406Z" fill="#A5B1CE"/>
</svg>
