<svg width="32" height="32" viewBox="0 0 32 32" fill="none" xmlns="http://www.w3.org/2000/svg">
<path d="M23.9999 14.3992H22.3999V9.59922C22.3999 6.07922 19.5199 3.19922 15.9999 3.19922C12.4799 3.19922 9.5999 6.07922 9.5999 9.59922V14.3992H7.9999C7.1999 14.3992 6.3999 15.1992 6.3999 15.9992V27.1992C6.3999 27.9992 7.1999 28.7992 7.9999 28.7992H23.9999C24.7999 28.7992 25.5999 27.9992 25.5999 27.1992V15.9992C25.5999 15.1992 24.7999 14.3992 23.9999 14.3992ZM17.5999 25.5992H14.3999L15.0399 22.0792C14.2399 21.7592 13.5999 20.7992 13.5999 19.9992C13.5999 18.7192 14.7199 17.5992 15.9999 17.5992C17.2799 17.5992 18.3999 18.7192 18.3999 19.9992C18.3999 20.9592 17.9199 21.7592 16.9599 22.0792L17.5999 25.5992ZM19.1999 14.3992H12.7999V9.59922C12.7999 7.83922 14.2399 6.39922 15.9999 6.39922C17.7599 6.39922 19.1999 7.83922 19.1999 9.59922V14.3992Z" fill="#A5B1CE"/>
</svg>
