<svg width="16" height="16" viewBox="0 0 16 16" fill="none" xmlns="http://www.w3.org/2000/svg">
<path d="M14 9.67497L11.0569 8.3556L11.0456 8.35059C10.8543 8.26812 10.6454 8.23492 10.4379 8.25403C10.2305 8.27313 10.0312 8.34394 9.85813 8.45997C9.83387 8.4762 9.8105 8.49373 9.78813 8.51247L8.39375 9.69997C7.58125 9.25934 6.74188 8.42684 6.30063 7.62434L7.49188 6.2081C7.511 6.18521 7.52874 6.16121 7.545 6.13622C7.65799 5.96382 7.72659 5.76615 7.74469 5.56081C7.76279 5.35548 7.72984 5.14886 7.64875 4.95934C7.64683 4.95572 7.64515 4.95196 7.64375 4.94809L6.325 1.99997C6.21676 1.75342 6.03201 1.54827 5.7981 1.41489C5.5642 1.2815 5.29357 1.22696 5.02625 1.25934C4.11899 1.37853 3.28612 1.82389 2.68322 2.51225C2.08031 3.20062 1.74859 4.08491 1.75 4.99997C1.75 10.1006 5.89938 14.25 11 14.25C11.9151 14.2514 12.7994 13.9197 13.4877 13.3168C14.1761 12.7139 14.6214 11.881 14.7406 10.9737C14.773 10.7064 14.7185 10.4358 14.5851 10.2019C14.4517 9.96797 14.2466 9.78322 14 9.67497ZM11 12.75C8.94534 12.7475 6.97554 11.9302 5.52267 10.4773C4.0698 9.02444 3.25249 7.05464 3.25 4.99997C3.24857 4.48215 3.42437 3.97944 3.74818 3.57536C4.07199 3.17127 4.52432 2.89016 5.03 2.77872L6.20625 5.40372L5.00875 6.82997C4.9894 6.85304 4.97145 6.87725 4.955 6.90247C4.83697 7.08282 4.76758 7.29062 4.75356 7.5057C4.73954 7.72078 4.78138 7.93583 4.875 8.12997C5.46375 9.33497 6.67688 10.54 7.89438 11.13C8.08982 11.2226 8.30595 11.263 8.52165 11.2471C8.73736 11.2312 8.94525 11.1596 9.125 11.0393C9.14914 11.023 9.17231 11.0053 9.19438 10.9862L10.5963 9.79434L13.2213 10.97C13.1098 11.4757 12.8287 11.928 12.4246 12.2518C12.0205 12.5756 11.5178 12.7514 11 12.75Z" fill="#A4A4A4"/>
</svg>
