<svg width="32" height="33" viewBox="0 0 32 33" fill="none" xmlns="http://www.w3.org/2000/svg">
<g clip-path="url(#clip0_1873_6878)">
<path d="M27.7779 7.07843C25.7636 6.54084 23.7958 5.8423 21.8934 4.98954C20.0218 4.17764 18.2151 3.22375 16.489 2.13621L16.0001 1.83398L15.5201 2.1451C13.794 3.23264 11.9873 4.18653 10.1157 4.99843C8.21014 5.8486 6.23935 6.54417 4.22233 7.07843L3.55566 7.24732V14.6607C3.55566 26.5629 15.5823 31.0162 15.6979 31.0607L16.0001 31.1673L16.3023 31.0607C16.4268 31.0607 28.4446 26.5718 28.4446 14.6607V7.24732L27.7779 7.07843ZM23.7157 12.9895L13.7868 22.634L8.169 17.0073C7.93325 16.7716 7.80081 16.4518 7.80081 16.1184C7.80081 15.785 7.93325 15.4653 8.169 15.2295C8.40475 14.9938 8.72449 14.8614 9.05789 14.8614C9.39128 14.8614 9.71103 14.9938 9.94677 15.2295L13.8134 19.1673L21.9823 11.1673C22.0991 11.0506 22.2376 10.958 22.3902 10.8948C22.5427 10.8316 22.7061 10.7991 22.8712 10.7991C23.0363 10.7991 23.1998 10.8316 23.3523 10.8948C23.5048 10.958 23.6434 11.0506 23.7601 11.1673C23.8768 11.284 23.9694 11.4226 24.0326 11.5751C24.0958 11.7277 24.1283 11.8911 24.1283 12.0562C24.1283 12.2213 24.0958 12.3848 24.0326 12.5373C23.9694 12.6898 23.8768 12.8284 23.7601 12.9451L23.7157 12.9895Z" fill="#A5B1CE"/>
</g>
<defs>
<clipPath id="clip0_1873_6878">
<rect width="32" height="32" fill="white" transform="translate(0 0.5)"/>
</clipPath>
</defs>
</svg>
